#!OML:ASF H:\Terrain\Patient Classification 1\Takeo\Monday\TakeoMonday.ASF
:FULLY-SPECIFIED
:DEGREES
282
root 10.1401 17.5622 -3.55332 -3.62664 -28.5467 0.474157
lowerback 8.95557 1.54906 4.89183
upperback 5.2858 2.3621 1.2191
thorax 0.62282 1.25053 -1.67327
lowerneck -12.7511 5.80887 1.46385
upperneck -2.71714 7.50493 -2.21773
head 1.43266 3.66676 -0.563057
rclavicle -4.81059e-014 1.66979e-014
rhumerus 51.9342 39.3067 -67.6919
rradius 45.0694
rwrist -26.6749
rhand -44.6397 28.988
rfingers 7.12502
rthumb -17.437 -0.249937
lclavicle -4.81059e-014 1.66979e-014
lhumerus 53.3273 -17.5731 67.968
lradius 62.3984
lwrist 44.4308
lhand -46.4164 30.2758
lfingers 7.12502
lthumb -19.1462 59.3534
rfemur 1.5898 3.35891 20.256
rtibia 22.4937
rfoot -18.3029 -15.3353
rtoes -8.94213
lfemur -18.4405 1.46224 -16.4258
ltibia 25.1877
lfoot -1.56187 11.3659
ltoes -0.596136
283
root 10.114 17.5667 -3.56351 -3.91594 -28.2639 0.321612
lowerback 8.61979 1.58014 5.29727
upperback 5.14032 2.42034 1.32965
thorax 0.67444 1.28711 -1.78084
lowerneck -12.9469 5.61374 0.765712
upperneck -2.09587 7.34141 -1.62076
head 1.61392 3.60136 -0.253561
rclavicle 4.9895e-014 2.22639e-014
rhumerus 52.2466 38.6921 -67.8237
rradius 45.2668
rwrist -25.8249
rhand -44.2055 28.7481
rfingers 7.12502
rthumb -17.019 -0.526329
lclavicle 4.9895e-014 2.22639e-014
lhumerus 54.1969 -17.526 67.2728
lradius 62.9999
lwrist 44.0968
lhand -46.7036 31.4835
lfingers 7.12502
lthumb -19.4223 60.5335
rfemur 2.0376 3.23194 20.5431
rtibia 22.492
rfoot -18.3995 -15.5764
rtoes -9.81289
lfemur -17.8946 1.29542 -16.2205
ltibia 24.8479
lfoot -1.38661 11.2808
ltoes -1.37338
284
root 10.0843 17.5647 -3.57318 -4.43061 -27.9207 0.610123
lowerback 8.31158 1.61453 5.2298
upperback 5.02581 2.44959 1.19248
thorax 0.729267 1.30353 -1.8786
lowerneck -12.8695 5.60566 1.20397
upperneck -1.93171 7.27666 -1.82465
head 1.68169 3.56123 -0.392666
rclavicle 6.95746e-015 -7.95139e-016
rhumerus 52.8721 38.0702 -67.8571
rradius 45.3688
rwrist -25.286
rhand -44.4463 29.7753
rfingers 7.12502
rthumb -17.2508 0.520974
lclavicle 6.95746e-015 -7.95139e-016
lhumerus 55.03 -17.4596 66.2593
lradius 63.7432
lwrist 43.7458
lhand -46.6432 32.8238
lfingers 7.12502
lthumb -19.3642 61.8796
rfemur 2.51498 3.04589 20.3958
rtibia 22.5077
rfoot -18.5715 -15.683
rtoes -9.69021
lfemur -17.3264 0.971988 -16.4228
ltibia 24.4879
lfoot -1.11761 11.2592
ltoes -1.97791
285
root 10.0557 17.557 -3.58985 -4.87873 -27.5951 0.931938
lowerback 8.07097 1.67024 5.06744
upperback 4.83186 2.50948 1.0689
thorax 0.661251 1.32902 -1.91566
lowerneck -12.6932 5.63727 1.70551
upperneck -1.82191 7.2596 -2.10522
head 1.72099 3.54381 -0.568226
rclavicle 1.11319e-014 -3.18055e-015
rhumerus 53.6814 37.6463 -67.2909
rradius 45.7214
rwrist -25.4655
rhand -44.6345 30.5749
rfingers 7.12502
rthumb -17.4319 1.33654
lclavicle 1.11319e-014 -3.18055e-015
lhumerus 55.5455 -17.3087 65.5939
lradius 64.5383
lwrist 43.4489
lhand -46.3476 33.0648
lfingers 7.12502
lthumb -19.08 62.149
rfemur 2.8813 2.89762 20.2195
rtibia 22.528
rfoot -18.8082 -15.8257
rtoes -9.81977
lfemur -16.8795 0.752203 -16.6729
ltibia 24.0644
lfoot -0.34004 11.114
ltoes -3.06908
286
root 10.03 17.5511 -3.60189 -5.16249 -27.2847 0.938154
lowerback 7.80437 1.72804 5.27454
upperback 4.60309 2.59563 1.06584
thorax 0.587094 1.37242 -2.03532
lowerneck -12.6535 5.54594 1.72813
upperneck -1.41942 7.14355 -2.0837
head 1.84643 3.48587 -0.566529
rclavicle -5.1684e-015 -4.77083e-015
rhumerus 54.16 37.2131 -66.873
rradius 46.2214
rwrist -25.476
rhand -44.7621 30.6416
rfingers 7.12502
rthumb -17.5548 1.4142
lclavicle -5.1684e-015 -4.77083e-015
lhumerus 56.0795 -17.1783 64.9801
lradius 65.2487
lwrist 43.578
lhand -46.6037 32.1477
lfingers 7.12502
lthumb -19.3262 61.2074
rfemur 3.22022 2.73527 20.3251
rtibia 22.5952
rfoot -19.0162 -15.991
rtoes -10.5267
lfemur -16.3939 0.668209 -16.6417
ltibia 23.5595
lfoot 0.273531 10.992
ltoes -2.52761
287
root 10.0084 17.5531 -3.60989 -5.6135 -26.9513 1.03539
lowerback 7.62713 1.74895 5.42601
upperback 4.47839 2.62888 1.04947
thorax 0.56638 1.39062 -2.13488
lowerneck -12.8526 5.43144 1.51318
upperneck -0.886326 7.01955 -1.79985
head 2.03725 3.4301 -0.43405
rclavicle 6.71892e-014 1.59028e-015
rhumerus 54.3976 36.7346 -66.8657
rradius 46.6726
rwrist -24.9272
rhand -44.9859 30.9694
rfingers 7.12502
rthumb -17.7701 1.76137
lclavicle 6.71892e-014 1.59028e-015
lhumerus 56.8462 -17.0363 64.2293
lradius 65.7692
lwrist 43.5118
lhand -46.9529 31.4881
lfingers 7.12502
lthumb -19.662 60.5138
rfemur 3.70783 2.54178 20.3157
rtibia 22.6499
rfoot -19.0916 -16.1727
rtoes -10.058
lfemur -15.7406 0.402794 -16.6753
ltibia 23.1053
lfoot 0.158391 11.1058
ltoes 0.1072
288
root 9.98565 17.5564 -3.6224 -6.01036 -26.6666 1.29271
lowerback 7.52691 1.81754 5.33723
upperback 4.17526 2.72421 1.04362
thorax 0.309305 1.42677 -2.10138
lowerneck -12.7598 5.35106 1.19666
upperneck -0.333985 6.95552 -1.38724
head 2.17507 3.41066 -0.247488
rclavicle -9.93923e-016 3.97569e-015
rhumerus 54.4505 36.3678 -66.9151
rradius 47.0912
rwrist -24.3268
rhand -44.7532 31.8835
rfingers 7.12502
rthumb -17.5462 2.65534
lclavicle -9.93923e-016 3.97569e-015
lhumerus 57.3179 -16.9051 63.7063
lradius 66.3499
lwrist 43.5608
lhand -46.9072 30.8998
lfingers 7.12502
lthumb -19.6181 59.9299
rfemur 4.06648 2.43954 20.1692
rtibia 22.6136
rfoot -19.1202 -16.3493
rtoes -9.14189
lfemur -15.3158 0.101348 -16.849
ltibia 22.7693
lfoot 0.120273 11.1165
ltoes 0.433636
289
root 9.95812 17.5524 -3.62957 -6.06686 -26.3755 1.39206
lowerback 7.09397 1.93589 5.38757
upperback 3.74665 2.87879 1.04059
thorax 0.118201 1.49483 -2.13553
lowerneck -12.2135 5.21903 1.04437
upperneck -0.116947 6.80773 -1.21092
head 2.13431 3.34558 -0.18672
rclavicle -7.85199e-015 1.35174e-014
rhumerus 54.6518 35.9326 -66.7509
rradius 47.4843
rwrist -23.9814
rhand -44.0576 32.5007
rfingers 7.12502
rthumb -16.8766 3.21404
lclavicle -7.85199e-015 1.35174e-014
lhumerus 57.6284 -16.8877 63.6299
lradius 66.8535
lwrist 43.5404
lhand -46.6694 30.102
lfingers 7.12502
lthumb -19.3895 59.1553
rfemur 4.17599 2.29863 20.1648
rtibia 22.5612
rfoot -19.2974 -16.3939
rtoes -9.15729
lfemur -15.2001 -0.0521634 -16.9172
ltibia 22.431
lfoot 0.493714 11.0218
ltoes -1.17543
290
root 9.93417 17.5448 -3.63528 -6.24094 -26.0849 1.33692
lowerback 6.65417 2.3223 5.83885
upperback 3.80061 3.38685 0.691189
thorax 0.507851 1.77206 -2.75131
lowerneck -13.3522 4.82059 1.92468
upperneck 0.615602 6.14402 -1.39796
head 2.62598 3.00452 -0.394933
rclavicle 3.46879e-014 -6.36111e-015
rhumerus 55.2634 34.1465 -66.5062
rradius 47.7385
rwrist -23.8465
rhand -43.9047 32.8669
rfingers 7.12502
rthumb -16.7295 3.56774
lclavicle 3.46879e-014 -6.36111e-015
lhumerus 59.4024 -17.5955 62.7694
lradius 67.4143
lwrist 43.194
lhand -46.4425 30.4517
lfingers 7.12502
lthumb -19.1712 59.5268
rfemur 4.46952 2.05275 20.2857
rtibia 22.5755
rfoot -19.4941 -16.4521
rtoes -8.82102
lfemur -14.8516 -0.117317 -16.8724
ltibia 22.0555
lfoot 0.909502 10.9937
ltoes -2.24745
